# Blender v2.67 (sub 0) OBJ File: ''
# www.blender.org
mtllib cityLine.mtl
o cityLine_cityLine_initialShadingGroup.001
v -46.994965 0.433664 -72.332382
v -140.433929 0.433664 -72.332382
v -46.994965 114.728645 -72.332352
v -140.433929 114.728645 -72.332352
v -46.994965 114.728615 -20.366829
v -140.433929 114.728615 -20.366829
v -140.433929 0.433646 -20.366867
v -46.994965 0.433646 -20.366867
v 24.356297 0.433664 -72.332382
v -46.508801 0.433664 -72.332382
v 24.356297 73.021126 -72.332352
v -46.508801 73.021126 -72.332352
v 24.356297 73.021095 -20.366844
v -46.508801 73.021095 -20.366844
v -46.508801 0.433646 -20.366867
v 81.615089 0.433664 -72.332382
v 25.263351 0.433664 -72.332382
v 81.615089 91.911102 -72.332352
v 25.263351 91.911102 -72.332352
v 81.615089 91.911072 -20.366837
v 25.263351 91.911072 -20.366837
v 25.263351 0.433646 -20.366867
v 81.615089 0.433646 -20.366867
v 159.222809 0.433664 -72.332382
v 88.357712 0.433664 -72.332382
v 159.222809 160.133865 -72.332336
v 88.357712 160.133865 -72.332336
v 159.222809 160.133835 -20.366814
v 88.357712 160.133835 -20.366814
v 88.357712 0.433646 -20.366867
v 159.222809 0.433646 -20.366867
v -81.825768 0.433640 0.726669
v -175.264740 0.433640 0.726669
v -81.825768 205.936661 0.726737
v -175.264740 205.936661 0.726737
v -81.825768 205.936630 52.692253
v -175.264740 205.936630 52.692253
v -175.264740 0.433622 52.692184
v -81.825768 0.433622 52.692184
v 24.356297 0.433634 20.366867
v -29.622894 0.433634 20.366867
v 24.356297 122.810493 20.366905
v -29.622894 146.634659 20.366917
v 24.356297 122.810463 72.332428
v -29.622894 146.634628 72.332428
v -81.283493 0.433634 20.366867
v -81.283493 0.433616 72.332382
v -81.283493 169.435471 20.366920
v -81.283493 169.435440 72.332443
v 24.356297 0.433616 72.332382
v -29.622894 174.225922 20.366924
v -81.283493 197.026733 20.366932
v -29.622894 174.225891 72.332443
v -81.283493 197.026703 72.332443
v 25.263351 0.433636 11.295822
v 25.263351 139.946640 11.295868
v 102.472580 0.433636 11.295822
v 102.472580 183.359634 11.295881
v 102.472580 183.359604 63.261398
v 25.263351 139.946609 63.261383
v 25.263351 0.433620 63.261337
v 102.472580 0.433620 63.261337
v 175.264740 0.433640 2.306992
v 104.399651 0.433640 2.306992
v 175.264740 249.536484 2.307074
v 104.399651 249.536484 2.307074
v 175.264740 249.536453 54.272530
v 104.399651 249.536453 54.272530
v 104.399651 0.433622 54.272446
v 175.264740 0.433622 54.272446
v -110.332458 205.936661 6.500417
v -154.158600 205.936661 6.500417
v -110.332458 294.005737 6.500447
v -154.158600 294.005737 6.500447
v -110.332458 294.005737 46.918663
v -154.158600 294.005737 46.918663
v -110.332458 205.936630 46.918633
v -154.158600 205.936630 46.918633
vt 0.634068 0.013877
vt 0.900634 0.013877
vt 0.634068 0.339941
vt 0.900634 0.339941
vt 0.572767 0.911674
vt 0.344890 0.911674
vt 0.572767 0.746843
vt 0.344890 0.746843
vt 0.430516 0.013877
vt 0.632682 0.013877
vt 0.430516 0.220957
vt 0.632682 0.220957
vt 0.267166 0.013877
vt 0.427928 0.013877
vt 0.267166 0.274847
vt 0.427928 0.274847
vt 0.045765 0.013877
vt 0.247931 0.013877
vt 0.045765 0.469474
vt 0.247931 0.469474
vt 0.733435 0.013877
vt 1.000000 0.013877
vt 0.733435 0.600142
vt 1.000000 0.600142
vt 0.584509 0.013877
vt 0.430516 0.362997
vt 0.584509 0.430964
vt 0.731888 0.013877
vt 0.731888 0.496010
vt 0.584509 0.509677
vt 0.731888 0.574723
vt 0.427928 0.411884
vt 0.207663 0.013877
vt 0.207663 0.535734
vt 0.000000 0.013877
vt 0.202166 0.013877
vt 0.000000 0.724525
vt 0.202166 0.724525
vt 0.814759 0.600142
vt 0.939788 0.600142
vt 0.814759 0.851388
vt 0.939788 0.851388
vn 0.707083 0.000000 -0.707083
vn -0.707083 0.000000 -0.707083
vn 0.577349 0.577349 -0.577349
vn -0.577349 0.577349 -0.577349
vn 0.707083 0.707083 0.000000
vn -0.707083 0.707083 0.000000
vn -0.999969 0.000000 0.000000
vn 1.000000 0.000000 0.000000
vn 0.000000 0.000000 -1.000000
vn 0.000000 0.707083 -0.707083
vn 0.000000 1.000000 0.000000
vn -1.000000 0.000000 0.000000
vn 0.668691 0.435804 -0.602405
vn 0.437605 0.285195 -0.852718
vn 0.837764 0.545976 0.000000
vn -0.452864 0.694876 -0.558580
vn -0.545976 0.837764 0.000000
vn -0.684500 0.400403 -0.609149
vn 0.419965 0.717948 -0.555071
vn 0.504898 0.863155 0.000000
vn -0.863155 0.504898 0.000000
vn 0.577349 -0.577349 -0.577349
vn -0.577349 -0.577349 -0.577349
vn 0.707083 -0.707083 0.000000
vn -0.707083 -0.707083 0.000000
g cityLine_cityLine_initialShadingGroup.001_cityLine_cityLine_initialShadingGroup.001_initialShadingGroup.006
usemtl initialShadingGroup.006
s 1
f 1/1/1 2/2/2 3/3/3
f 3/3/3 2/2/2 4/4/4
f 3/5/3 4/6/4 5/7/5
f 5/7/5 4/6/4 6/8/6
f 2/2/2 7/2/7 4/4/4
f 4/4/4 7/2/7 6/4/6
f 8/1/8 1/1/1 5/3/5
f 5/3/5 1/1/1 3/3/3
f 9/9/9 10/10/2 11/11/10
f 11/11/10 10/10/2 12/12/4
f 11/5/10 12/6/4 13/7/11
f 13/7/11 12/6/4 14/8/6
f 10/10/2 15/10/12 12/12/4
f 12/12/4 15/10/12 14/12/6
f 16/13/1 17/14/2 18/15/3
f 18/15/3 17/14/2 19/16/4
f 18/5/3 19/6/4 20/7/5
f 20/7/5 19/6/4 21/8/6
f 17/14/2 22/14/7 19/16/4
f 19/16/4 22/14/7 21/16/6
f 23/13/8 16/13/1 20/15/5
f 20/15/5 16/13/1 18/15/3
f 24/17/1 25/18/2 26/19/3
f 26/19/3 25/18/2 27/20/4
f 26/5/3 27/6/4 28/7/5
f 28/7/5 27/6/4 29/8/6
f 25/18/2 30/18/12 27/20/4
f 27/20/4 30/18/12 29/20/6
f 31/17/8 24/17/1 28/19/5
f 28/19/5 24/17/1 26/19/3
f 32/21/1 33/22/2 34/23/3
f 34/23/3 33/22/2 35/24/4
f 34/5/3 35/6/4 36/7/5
f 36/7/5 35/6/4 37/8/6
f 33/22/2 38/22/12 35/24/4
f 35/24/4 38/22/12 37/24/6
f 39/21/8 32/21/1 36/23/5
f 36/23/5 32/21/1 34/23/3
f 40/9/1 41/25/9 42/26/13
f 42/26/13 41/25/9 43/27/14
f 42/5/13 43/6/14 44/7/15
f 44/7/15 43/6/14 45/8/15
f 46/28/2 47/28/12 48/29/2
f 48/29/2 47/28/12 49/29/12
f 50/9/8 40/9/1 44/26/15
f 44/26/15 40/9/1 42/26/13
f 51/5/13 52/6/16 53/7/15
f 53/7/15 52/6/16 54/8/17
f 41/25/9 46/28/2 43/27/14
f 43/27/14 46/28/2 48/29/2
f 43/27/14 48/29/2 51/30/13
f 51/30/13 48/29/2 52/31/16
f 48/29/2 49/29/12 52/31/16
f 52/31/16 49/29/12 54/31/17
f 45/27/15 43/27/14 53/30/15
f 53/30/15 43/27/14 51/30/13
f 55/14/2 56/32/18 57/33/1
f 57/33/1 56/32/18 58/34/19
f 58/5/19 56/6/18 59/7/20
f 59/7/20 56/6/18 60/8/21
f 55/14/2 61/14/12 56/32/18
f 56/32/18 61/14/12 60/32/21
f 62/33/8 57/33/1 59/34/20
f 59/34/20 57/33/1 58/34/19
f 63/35/1 64/36/2 65/37/3
f 65/37/3 64/36/2 66/38/4
f 65/5/3 66/6/4 67/7/5
f 67/7/5 66/6/4 68/8/6
f 64/36/2 69/36/7 66/38/4
f 66/38/4 69/36/7 68/38/6
f 70/35/8 63/35/1 67/37/5
f 67/37/5 63/35/1 65/37/3
f 71/39/22 72/40/23 73/41/3
f 73/41/3 72/40/23 74/42/4
f 73/5/3 74/6/4 75/7/5
f 75/7/5 74/6/4 76/8/6
f 77/39/24 78/40/25 71/39/22
f 71/39/22 78/40/25 72/40/23
f 72/40/23 78/40/25 74/42/4
f 74/42/4 78/40/25 76/42/6
f 77/39/24 71/39/22 75/41/5
f 75/41/5 71/39/22 73/41/3
