# Blender v2.67 (sub 0) OBJ File: ''
# www.blender.org
mtllib giantPillar.mtl
o GiantPillar.001_GiantPillar.001_initialShadingGroup.000
v 1.689487 135.736786 -4.644396
v 2.738117 17.697079 -9.103388
v -3.018276 135.736786 -3.114611
v -7.335934 17.697075 -5.830103
v -3.570385 135.736786 -2.354814
v -7.811184 17.697075 -5.176019
v -3.570385 135.736786 2.595350
v -7.811184 17.697075 5.416479
v -3.018276 135.736786 3.355147
v -7.335934 17.697071 6.070563
v 1.689487 135.736786 4.884932
v 2.738117 17.697071 9.343847
v 2.582813 135.736786 4.594496
v 3.507069 17.697071 9.094000
v 5.492390 135.736786 0.589888
v 9.733173 17.697075 0.524481
v 5.492390 135.736786 -0.349352
v 9.733173 17.697075 -0.284021
v 2.582813 135.736786 -4.353960
v 3.507069 17.697079 -8.853510
v 9.025654 12.667187 -6.316494
v 3.550236 12.667189 -10.294613
v 9.025654 17.362770 -6.316492
v 3.550236 17.362770 -10.294611
v -3.217739 12.667189 -10.294613
v -3.217739 17.362770 -10.294611
v -8.693157 12.667187 -6.316494
v -8.693157 17.362770 -6.316492
v -10.784573 12.667185 0.120213
v -10.784573 17.362766 0.120215
v -8.693157 12.667183 6.556980
v -8.693157 17.362762 6.556982
v -3.217739 12.667181 10.535099
v -3.217739 17.362762 10.535101
v 3.550236 12.667181 10.535099
v 3.550236 17.362762 10.535101
v 9.025654 12.667183 6.556980
v 9.025654 17.362762 6.556982
v 11.117069 12.667185 0.120213
v 11.117069 17.362766 0.120215
v 10.417591 17.697075 0.120215
v 8.459751 17.697079 -5.905328
v 8.459751 17.697071 6.145819
v 3.334095 17.697079 -9.629358
v -3.001583 17.697079 -9.629358
v -8.127254 17.697079 -5.905328
v -10.085079 17.697075 0.120215
v -8.127254 17.697071 6.145819
v -3.001583 17.697071 9.869818
v 3.334095 17.697071 9.869818
v -9.525524 12.093997 12.057316
v -12.533337 0.839206 15.065125
v 9.525517 12.093997 12.057316
v 12.533344 0.839206 15.065125
v -12.533337 0.839214 -15.065125
v -9.525524 12.094005 -12.057277
v 12.533344 0.839214 -15.065125
v 9.525517 12.094005 -12.057277
v 12.057285 12.093997 9.525547
v 15.065121 0.839206 12.533356
v 12.057285 12.094005 -9.525509
v 15.065121 0.839214 -12.533356
v -12.057293 12.094005 -9.525509
v -15.065121 0.839214 -12.533356
v -12.057293 12.093997 9.525547
v -15.065121 0.839206 12.533356
v -11.181606 12.672334 9.162846
v -9.162792 12.672334 11.181614
v -11.181606 12.672341 -9.162807
v 9.162785 12.672334 11.181614
v 11.181614 12.672334 9.162846
v 11.181614 12.672341 -9.162807
v 9.162785 12.672341 -11.181606
v -9.162792 12.672341 -11.181606
vt 0.298830 0.937842
vt 0.370767 0.009011
vt 0.338015 0.941518
vt 0.451572 0.009011
vt 0.111918 0.939844
vt 0.011413 0.009011
vt 0.151041 0.936601
vt 0.088484 0.009011
vt 0.158482 0.936171
vt 0.094088 0.009011
vt 0.197766 0.934850
vt 0.174893 0.009011
vt 0.205230 0.934765
vt 0.181003 0.009011
vt 0.244584 0.935138
vt 0.269563 0.009011
vt 0.252051 0.935359
vt 0.276097 0.009011
vt 0.291378 0.937314
vt 0.364657 0.009011
vt 0.984206 0.867047
vt 0.984206 0.915721
vt 0.950436 0.867047
vt 0.950436 0.915721
vt 0.984206 0.964395
vt 0.950436 0.964395
vt 0.984206 0.477657
vt 0.984206 0.526331
vt 0.950436 0.477657
vt 0.950436 0.526331
vt 0.984206 0.575005
vt 0.950436 0.575005
vt 0.984206 0.623679
vt 0.950436 0.623679
vt 0.984206 0.672352
vt 0.950436 0.672352
vt 0.984206 0.721026
vt 0.950436 0.721026
vt 0.984206 0.769700
vt 0.950436 0.769700
vt 0.984206 0.818374
vt 0.950436 0.818374
vt 0.576422 0.331896
vt 0.565284 0.366191
vt 0.565276 0.297603
vt 0.536116 0.387393
vt 0.500031 0.387393
vt 0.470862 0.366191
vt 0.459725 0.331896
vt 0.470871 0.297603
vt 0.500044 0.276410
vt 0.536103 0.276410
vt 0.648342 0.845760
vt 0.683433 0.977175
vt 0.426076 0.845760
vt 0.390984 0.977175
vt 0.648807 0.845727
vt 0.683970 0.977195
vt 0.426088 0.845727
vt 0.390925 0.977195
vt 0.580848 0.331895
vt 0.568866 0.368792
vt 0.537490 0.391604
vt 0.498657 0.391604
vt 0.467281 0.368792
vt 0.455299 0.331895
vt 0.467291 0.295002
vt 0.498677 0.272201
vt 0.537470 0.272201
vt 0.568856 0.295001
vt 0.547566 0.385353
vt 0.534990 0.390253
vt 0.580217 0.337997
vt 0.468697 0.359728
vt 0.475991 0.371081
vt 0.478211 0.291459
vt 0.470118 0.302223
vt 0.545836 0.278295
vt 0.533026 0.274131
vt 0.579998 0.324532
vt 0.005809 0.009011
vt 0.104514 0.940650
vt 0.456184 0.687129
vt 0.469100 0.674223
vt 0.456184 0.804687
vt 0.586584 0.674252
vt 0.599494 0.687164
vt 0.599494 0.804652
vt 0.586584 0.817565
vt 0.469100 0.817594
vt 0.361114 0.977175
vt 0.390652 0.977175
vt 0.396206 0.845760
vt 0.425743 0.845760
vt 0.361446 0.977175
vt 0.396538 0.845760
vt 0.449480 0.684656
vt 0.466629 0.667521
vt 0.589058 0.667551
vt 0.606195 0.684692
vt 0.606195 0.807124
vt 0.589058 0.824265
vt 0.466629 0.824295
vt 0.449480 0.807160
vn -0.001251 0.657735 -0.753227
vn 0.001740 0.037751 -0.999268
vn -0.440321 0.658620 -0.610157
vn -0.589801 0.040101 -0.806513
vn -0.715720 0.659139 -0.230750
vn -0.949522 0.041536 -0.310892
vn -0.715720 0.659139 0.230750
vn -0.949522 0.041536 0.310892
vn -0.440321 0.658620 0.610157
vn -0.589801 0.040101 0.806513
vn -0.001251 0.657735 0.753227
vn 0.001709 0.037751 0.999268
vn 0.445143 0.656880 0.608509
vn 0.584857 0.035463 0.810327
vn 0.716971 0.656362 0.234779
vn 0.951201 0.033998 0.306681
vn 0.716971 0.656362 -0.234779
vn 0.951201 0.033998 -0.306681
vn 0.445143 0.656880 -0.608509
vn 0.584887 0.035463 -0.810327
vn 0.809015 0.000000 -0.587756
vn 0.309000 0.000000 -0.951048
vn 0.704917 0.490677 -0.512131
vn 0.269234 0.490677 -0.828669
vn -0.309000 0.000000 -0.951048
vn -0.269234 0.490677 -0.828669
vn -0.809015 0.000000 -0.587756
vn -0.704917 0.490677 -0.512131
vn -1.000000 0.000000 0.000000
vn -0.871334 0.490677 0.000000
vn -0.809015 0.000000 0.587756
vn -0.704917 0.490677 0.512131
vn -0.309000 0.000000 0.951048
vn -0.269234 0.490677 0.828669
vn 0.309000 0.000000 0.951048
vn 0.269234 0.490677 0.828669
vn 0.809015 0.000000 0.587756
vn 0.704917 0.490677 0.512131
vn 1.000000 0.000000 0.000000
vn 0.871334 0.490677 0.000000
vn 0.262215 0.964995 0.000000
vn 0.212134 0.964995 -0.154118
vn 0.212134 0.964995 0.154118
vn 0.081027 0.964995 -0.249367
vn -0.081027 0.964995 -0.249367
vn -0.212134 0.964995 -0.154118
vn -0.262215 0.964995 0.000000
vn -0.212134 0.964995 0.154118
vn -0.081027 0.964995 0.249367
vn 0.081027 0.964995 0.249367
vn -0.289590 0.588580 0.754753
vn -0.386425 0.333110 0.860042
vn 0.289590 0.588580 0.754753
vn 0.386425 0.333110 0.860042
vn -0.386425 0.333110 -0.860042
vn -0.289590 0.588580 -0.754753
vn 0.386425 0.333110 -0.860042
vn 0.289590 0.588580 -0.754753
vn 0.754753 0.588580 0.289590
vn 0.860042 0.333110 0.386425
vn 0.754753 0.588580 -0.289590
vn 0.860042 0.333110 -0.386425
vn -0.754753 0.588580 -0.289590
vn -0.860042 0.333110 -0.386425
vn -0.754753 0.588580 0.289590
vn -0.860042 0.333110 0.386425
vn -0.305460 0.943754 0.126499
vn -0.126499 0.943754 0.305429
vn -0.305460 0.943754 -0.126499
vn 0.126499 0.943754 0.305429
vn 0.305460 0.943754 0.126530
vn 0.305460 0.943754 -0.126530
vn 0.126499 0.943754 -0.305460
vn -0.126499 0.943754 -0.305460
g GiantPillar.001_GiantPillar.001_initialShadingGroup.000_GiantPillar.001_GiantPillar.001_initialShadingGroup.000_initialShadingGroup.004
usemtl initialShadingGroup.004
s 1
f 1/1/1 2/2/2 3/3/3
f 3/3/3 2/2/2 4/4/4
f 5/5/5 6/6/6 7/7/7
f 7/7/7 6/6/6 8/8/8
f 9/9/9 10/10/10 11/11/11
f 11/11/11 10/10/10 12/12/12
f 13/13/13 14/14/14 15/15/15
f 15/15/15 14/14/14 16/16/16
f 17/17/17 18/18/18 19/19/19
f 19/19/19 18/18/18 20/20/20
f 21/21/21 22/22/22 23/23/23
f 23/23/23 22/22/22 24/24/24
f 22/22/22 25/25/25 24/24/24
f 24/24/24 25/25/25 26/26/26
f 25/27/25 27/28/27 26/29/26
f 26/29/26 27/28/27 28/30/28
f 27/28/27 29/31/29 28/30/28
f 28/30/28 29/31/29 30/32/30
f 29/31/29 31/33/31 30/32/30
f 30/32/30 31/33/31 32/34/32
f 31/33/31 33/35/33 32/34/32
f 32/34/32 33/35/33 34/36/34
f 33/35/33 35/37/35 34/36/34
f 34/36/34 35/37/35 36/38/36
f 35/37/35 37/39/37 36/38/36
f 36/38/36 37/39/37 38/40/38
f 37/39/37 39/41/39 38/40/38
f 38/40/38 39/41/39 40/42/40
f 39/41/39 21/21/21 40/42/40
f 40/42/40 21/21/21 23/23/23
f 41/43/41 42/44/42 43/45/43
f 42/44/42 44/46/44 43/45/43
f 44/46/44 45/47/45 43/45/43
f 45/47/45 46/48/46 43/45/43
f 46/48/46 47/49/47 43/45/43
f 47/49/47 48/50/48 43/45/43
f 48/50/48 49/51/49 43/45/43
f 49/51/49 50/52/50 43/45/43
f 51/53/51 52/54/52 53/55/53
f 53/55/53 52/54/52 54/56/54
f 55/54/55 56/53/56 57/56/57
f 57/56/57 56/53/56 58/55/58
f 59/57/59 60/58/60 61/59/61
f 61/59/61 60/58/60 62/60/62
f 63/59/63 64/60/64 65/57/65
f 65/57/65 64/60/64 66/58/66
f 40/61/40 23/62/23 41/43/41
f 41/43/41 23/62/23 42/44/42
f 23/62/23 24/63/24 42/44/42
f 42/44/42 24/63/24 44/46/44
f 24/63/24 26/64/26 44/46/44
f 44/46/44 26/64/26 45/47/45
f 26/64/26 28/65/28 45/47/45
f 45/47/45 28/65/28 46/48/46
f 28/65/28 30/66/30 46/48/46
f 46/48/46 30/66/30 47/49/47
f 30/66/30 32/67/32 47/49/47
f 47/49/47 32/67/32 48/50/48
f 32/67/32 34/68/34 48/50/48
f 48/50/48 34/68/34 49/51/49
f 34/68/34 36/69/36 49/51/49
f 49/51/49 36/69/36 50/52/50
f 36/69/36 38/70/38 50/52/50
f 50/52/50 38/70/38 43/45/43
f 38/70/38 40/61/40 43/45/43
f 43/45/43 40/61/40 41/43/41
f 19/71/19 1/72/1 17/73/17
f 5/74/5 1/72/1 3/75/3
f 1/72/1 5/74/5 17/73/17
f 9/76/9 5/74/5 7/77/7
f 5/74/5 9/76/9 17/73/17
f 13/78/13 17/73/17 9/76/9
f 11/79/11 13/78/13 9/76/9
f 17/73/17 13/78/13 15/80/15
f 20/20/20 2/2/2 19/19/19
f 2/2/2 1/1/1 19/19/19
f 4/81/4 6/6/6 3/82/3
f 3/82/3 6/6/6 5/5/5
f 8/8/8 10/10/10 7/7/7
f 7/7/7 10/10/10 9/9/9
f 12/12/12 14/14/14 11/11/11
f 11/11/11 14/14/14 13/13/13
f 16/16/16 18/18/18 15/15/15
f 15/15/15 18/18/18 17/17/17
f 67/83/67 68/84/68 69/85/69
f 70/86/70 71/87/71 68/84/68
f 72/88/72 73/89/73 71/87/71
f 74/90/74 69/85/69 73/89/73
f 68/84/68 71/87/71 69/85/69
f 71/87/71 73/89/73 69/85/69
f 66/91/66 52/92/52 65/93/65
f 65/93/65 52/92/52 51/94/51
f 54/56/54 60/95/60 53/55/53
f 53/55/53 60/95/60 59/96/59
f 63/93/63 56/94/56 64/91/64
f 64/91/64 56/94/56 55/92/55
f 58/55/58 61/96/61 57/56/57
f 57/56/57 61/96/61 62/95/62
f 65/97/65 51/98/51 67/83/67
f 67/83/67 51/98/51 68/84/68
f 51/98/51 53/99/53 68/84/68
f 68/84/68 53/99/53 70/86/70
f 53/99/53 59/100/59 70/86/70
f 70/86/70 59/100/59 71/87/71
f 59/100/59 61/101/61 71/87/71
f 71/87/71 61/101/61 72/88/72
f 61/101/61 58/102/58 72/88/72
f 72/88/72 58/102/58 73/89/73
f 58/102/58 56/103/56 73/89/73
f 73/89/73 56/103/56 74/90/74
f 56/103/56 63/104/63 74/90/74
f 74/90/74 63/104/63 69/85/69
f 63/104/63 65/97/65 69/85/69
f 69/85/69 65/97/65 67/83/67
