# Blender v2.67 (sub 0) OBJ File: ''
# www.blender.org
mtllib streetlamp.mtl
o StreetLamp
v 3.146942 12.322063 -0.126163
v 3.499495 12.300669 -0.585224
v 3.853920 12.671706 -0.598732
v 3.242004 12.708873 0.197563
v 2.456879 12.857776 -0.412952
v 3.069191 12.820535 -1.209019
v 3.047768 12.386319 -0.936157
v 2.695148 12.407759 -0.477653
v 3.074757 12.194187 -0.541084
v 3.808962 13.028868 -0.565040
v 3.279167 13.061029 0.124626
v 2.599339 13.189954 -0.403900
v 3.129160 13.157768 -1.093288
v 3.450573 13.236309 -0.504948
v 3.253916 13.248231 -0.248760
v 3.002026 13.296021 -0.444832
v 3.198746 13.284047 -0.700466
v 3.296700 13.609857 -0.289047
v 3.439095 13.601212 -0.474285
v 3.256853 13.635763 -0.615944
v 3.114487 13.644430 -0.430988
v 3.261538 13.170403 -0.112087
v 3.580965 13.150995 -0.527622
v 3.172266 13.228504 -0.845405
v 2.852760 13.247965 -0.430488
v 3.362013 13.614436 -0.553646
v 3.442636 14.184490 -0.518299
v 3.463190 14.171206 -0.350944
v 3.382566 13.601151 -0.386291
v 3.284006 14.248871 -0.322773
v 3.195911 13.626009 -0.361393
v 3.263451 14.262156 -0.490127
v 3.175360 13.639292 -0.528751
v 3.436361 14.003711 -0.551571
v 3.596270 14.630922 -0.593990
v 3.639013 14.603295 -0.245979
v 3.461651 13.987364 -0.345653
v 3.250891 14.654981 -0.194206
v 3.231989 14.017945 -0.315021
v 3.208147 14.682606 -0.542221
v 3.206701 14.034290 -0.520939
v 1.536158 14.622847 -0.249649
v 0.680504 14.995834 -0.182674
v 0.702370 14.984840 -0.015316
v 1.549366 14.602242 -0.082294
v 0.780209 14.823938 -0.121525
v 1.510302 14.436768 -0.185051
v 3.253126 14.400423 -0.490086
v 2.447905 14.474272 -0.363193
v 2.466389 14.458228 -0.195839
v 3.274990 14.389427 -0.322727
v 2.410095 14.290303 -0.291187
v 3.372440 14.204372 -0.433086
v -2.149879 13.432199 -0.061237
v -2.501074 13.394361 0.397831
v -2.811253 13.798231 0.462254
v -2.201735 13.863878 -0.334042
v -1.402767 13.848320 0.276474
v -2.012686 13.782676 1.072540
v -2.041388 13.385430 0.748764
v -1.690115 13.423238 0.290257
v -2.091211 13.247283 0.333843
v -2.726328 14.149551 0.471302
v -2.198616 14.206400 -0.218357
v -1.506767 14.192939 0.310162
v -2.034552 14.136100 0.999554
v -2.346996 14.321424 0.430653
v -2.151091 14.342535 0.174458
v -1.894781 14.337533 0.370537
v -2.090740 14.316451 0.626171
v -2.152592 14.699023 0.258980
v -2.294430 14.683751 0.444222
v -2.109009 14.680140 0.585884
v -1.967163 14.695395 0.400921
v -2.167944 14.283350 0.029522
v -2.486120 14.249092 0.445057
v -2.070185 14.240993 0.762837
v -1.751953 14.275217 0.347923
v -2.216074 14.678477 0.523266
v -2.245993 15.070935 0.569637
v -2.273661 15.082823 0.363716
v -2.238562 14.688138 0.355908
v -2.042118 15.091063 0.333080
v -2.050381 14.694836 0.331009
v -2.014452 15.079176 0.539002
v -2.027895 14.685174 0.498371
v -2.333822 15.702165 0.690446
v -2.380583 15.722256 0.342439
v -1.989309 15.736177 0.290670
v -1.942551 15.716086 0.638681
v -0.272919 15.602308 0.323609
v 0.494129 14.979483 0.182476
v 0.472263 14.990477 0.015118
v -0.294785 15.613303 0.156247
v 0.383722 14.823193 0.101166
v -0.356356 15.443316 0.238599
v -2.045897 15.541660 0.551266
v -1.200071 15.784161 0.456689
v -1.221935 15.795155 0.289331
v -2.067764 15.552656 0.383905
v -1.220627 15.607720 0.362313
v -2.177433 15.362219 0.471195
v 1.056273 14.313965 0.370586
v 0.122572 14.427224 0.494946
v 0.006414 14.500387 -0.443798
v 0.940119 14.387131 -0.568157
v -0.095287 15.557140 -0.451936
v 1.146875 15.448984 -0.598660
v 0.062731 15.484506 0.655631
v 1.304893 15.376352 0.508906
v 0.683590 1.117129 -0.683596
v -0.683567 1.117129 -0.683596
v -0.529118 2.429176 -0.529135
v 0.529110 2.429176 -0.529135
v 0.529110 2.429174 0.529135
v -0.529118 2.429174 0.529135
v -0.683567 1.117129 0.683596
v 0.683590 1.117129 0.683596
v 0.301510 2.605045 0.301516
v 0.301510 2.605045 -0.301516
v 0.312704 5.776952 -0.301515
v 0.312704 5.776952 0.301517
v -0.416241 5.776952 0.301517
v -0.301517 2.605045 0.301516
v -0.301517 2.605045 -0.301516
v -0.416241 5.776952 -0.301515
v 0.990023 15.820267 -0.392970
v 0.265345 15.913857 -0.296355
v 0.355139 15.856313 0.432981
v 1.079826 15.762724 0.336364
v 0.843271 14.880661 -0.345291
v 0.245623 14.895298 -0.266247
v 0.921230 14.841464 0.251396
v 0.323580 14.856102 0.330441
v 0.546989 8.243170 0.393924
v 0.595348 8.177161 -0.125028
v 0.218361 11.024529 -0.394291
v 0.334028 11.044460 0.176792
v -0.382496 11.252409 0.249840
v -0.115036 8.112666 0.348834
v -0.066675 8.046658 -0.170117
v -0.470308 11.327295 -0.321239
vt 0.922854 0.826171
vt 0.916290 0.826171
vt 0.922833 0.822000
vt 0.903204 0.811390
vt 0.909755 0.811390
vt 0.903204 0.822000
vt 0.916290 0.811390
vt 0.909755 0.822000
vt 0.922833 0.811390
vt 0.896663 0.811390
vt 0.898236 0.836388
vt 0.922664 0.836388
vt 0.922664 0.843551
vt 0.922671 0.843467
vt 0.898244 0.843467
vt 0.922671 0.835423
vt 0.896312 0.836236
vt 0.923003 0.836236
vt 0.896312 0.843399
vt 0.923003 0.843623
vt 0.896312 0.843623
vt 0.923003 0.835579
vt 0.896583 0.836916
vt 0.917683 0.833289
vt 0.917800 0.844841
vt 0.896633 0.835599
vt 0.917865 0.833382
vt 0.917816 0.846568
vt 0.896623 0.836523
vt 0.917791 0.833850
vt 0.896632 0.843380
vt 0.896670 0.835975
vt 0.917869 0.833114
vt 0.917891 0.846108
vt 0.910532 0.821962
vt 0.901263 0.821793
vt 0.901263 0.810099
vt 0.916290 0.822000
vt 0.896663 0.822000
vt 0.898236 0.843551
vt 0.895981 0.835423
vt 0.898575 0.835579
vt 0.896625 0.836243
vt 0.917835 0.833266
vt 0.896641 0.843190
vt 0.896659 0.836771
vt 0.917832 0.833026
vt 0.917944 0.846023
vt 0.896650 0.836625
vt 0.917706 0.833906
vt 0.896662 0.843228
vt 0.917870 0.833115
vt 0.910532 0.810099
vt 0.900467 0.809065
vt 0.921421 0.809065
vt 0.900467 0.830020
vt 0.897299 0.807445
vt 0.925018 0.807058
vt 0.924631 0.831809
vt 0.909831 0.810869
vt 0.909825 0.821035
vt 0.899665 0.810863
vt 0.923003 0.843399
vt 0.896619 0.843751
vt 0.896618 0.843401
vt 0.917819 0.845438
vt 0.896676 0.843664
vt 0.917889 0.845006
vt 0.896693 0.844462
vt 0.917746 0.845065
vt 0.921421 0.830020
vt 0.896912 0.832196
vt 0.899659 0.821029
vt 0.882282 0.911512
vt 0.904264 0.915115
vt 0.904261 0.927611
vt 0.955431 0.934698
vt 0.924787 0.926796
vt 0.953062 0.912678
vt 0.904228 0.895586
vt 0.926210 0.911466
vt 0.853677 0.912774
vt 0.883734 0.926834
vt 0.885485 0.936239
vt 0.852639 0.934750
vt 0.955042 0.948667
vt 0.923053 0.936219
vt 0.904263 0.935368
vt 0.889059 0.950489
vt 0.853977 0.948691
vt 0.875446 0.952056
vt 0.933073 0.952053
vt 0.919459 0.950484
vt 0.904288 0.950133
vt 0.928072 0.877568
vt 0.880370 0.877623
vt 0.916517 0.714353
vt 0.916537 0.754027
vt 0.909576 0.754023
vt 0.909614 0.714485
vt 0.901588 0.714605
vt 0.924538 0.714652
vt 0.925059 0.754561
vt 0.916623 0.641302
vt 0.916526 0.676452
vt 0.909496 0.641295
vt 0.909592 0.676364
vt 0.901588 0.675903
vt 0.923706 0.634421
vt 0.924530 0.675869
vt 0.901057 0.754548
vt 0.911025 0.854535
vt 0.920704 0.854535
vt 0.921399 0.872188
vt 0.901825 0.872527
vt 0.889776 0.872372
vt 0.891666 0.854535
vt 0.930384 0.854535
vt 0.931466 0.872467
vt 0.901345 0.854535
vt 0.910454 0.872332
vt 0.876433 0.486766
vt 0.909558 0.483773
vt 0.888377 0.519881
vt 0.951712 0.532653
vt 0.930651 0.520500
vt 0.976328 0.504000
vt 0.942432 0.487124
vt 0.909491 0.517793
vt 0.842457 0.504022
vt 0.867161 0.533054
vt 0.878270 0.533474
vt 0.892238 0.528570
vt 0.893231 0.593656
vt 0.940435 0.593633
vt 0.923964 0.593226
vt 0.926456 0.528477
vt 0.909468 0.527220
vt 0.910044 0.592984
vt 0.940936 0.534202
vt 0.903012 0.814769
vt 0.922015 0.814758
vt 0.903656 0.831334
vt 0.896541 0.800416
vt 0.896010 0.778142
vt 0.909473 0.776650
vt 0.882997 0.777153
vt 0.879259 0.798703
vt 0.923168 0.776359
vt 0.936350 0.777678
vt 0.921452 0.798594
vt 0.910363 0.798926
vt 0.878297 0.650677
vt 0.891918 0.649045
vt 0.883264 0.707662
vt 0.938651 0.707158
vt 0.923192 0.711922
vt 0.925181 0.647468
vt 0.910450 0.646125
vt 0.911020 0.711642
vt 0.895668 0.706899
vt 0.879171 0.593710
vt 0.942650 0.650683
vt 0.902415 0.634417
vt 0.920277 0.831333
vt 0.936829 0.799728
vn 0.139759 0.988286 0.061311
vn 0.784317 0.176704 0.594662
vn 0.621645 0.282444 -0.730604
vn -0.694041 0.457471 -0.555902
vn -0.532516 0.352485 0.769533
vn 0.982698 -0.130856 -0.131079
vn 0.121527 -0.078542 0.989476
vn -0.982700 0.130863 0.131058
vn -0.121513 0.078544 -0.989477
vn 0.957500 -0.253431 -0.137720
vn 0.105178 -0.188304 0.976463
vn -0.992464 0.006240 0.122375
vn -0.136355 -0.032198 -0.990137
vn 0.139776 0.988285 0.061281
vn -0.027389 0.997744 0.061287
vn -0.761306 0.334675 -0.555342
vn -0.583249 0.258703 0.769995
vn 0.743200 0.305549 0.595225
vn 0.566360 0.382182 -0.730187
vn -0.987713 -0.090363 0.127504
vn -0.131442 0.007922 -0.991292
vn 0.990745 -0.019959 -0.134264
vn 0.134138 -0.106180 0.985258
vn -0.979546 -0.159718 0.122394
vn -0.129063 -0.054529 -0.990136
vn 0.986394 -0.089799 -0.137708
vn 0.135166 -0.168078 0.976463
vn -0.027393 0.997745 0.061282
vn -0.128232 -0.989849 -0.061282
vn 0.092718 0.994335 0.051981
vn 0.000000 -1.000000 -0.000000
vn 0.139753 0.988289 0.061261
vn 0.784314 0.176699 0.594667
vn 0.621523 0.282582 -0.730655
vn -0.694218 0.457336 -0.555791
vn -0.532538 0.352526 0.769499
vn 0.982698 -0.130858 -0.131073
vn 0.121522 -0.078539 0.989477
vn -0.982697 0.130853 0.131086
vn -0.121526 0.078541 -0.989476
vn 0.957500 -0.253433 -0.137715
vn 0.105164 -0.188309 0.976463
vn -0.992462 0.006231 0.122391
vn -0.136352 -0.032201 -0.990137
vn 0.139783 0.988284 0.061287
vn -0.027394 0.997744 0.061287
vn -0.761310 0.334680 -0.555335
vn -0.583244 0.258697 0.770002
vn 0.743221 0.305598 0.595174
vn 0.566404 0.382147 -0.730172
vn -0.987715 -0.090358 0.127495
vn -0.131444 0.007923 -0.991292
vn 0.990745 -0.019958 -0.134261
vn 0.134123 -0.106189 0.985259
vn -0.979545 -0.159721 0.122399
vn -0.129067 -0.054528 -0.990136
vn 0.986393 -0.089802 -0.137714
vn 0.135177 -0.168072 0.976462
vn -0.027392 0.997745 0.061281
vn -0.128228 -0.989850 -0.061279
vn 0.092715 0.994335 0.051979
vn -0.019349 -0.774987 0.631672
vn 0.569536 -0.810785 -0.134922
vn 0.949889 -0.280068 -0.138615
vn -0.992553 -0.021363 0.119785
vn -0.141118 -0.073122 -0.987274
vn -0.773766 -0.631855 0.044801
vn -0.139714 -0.988281 -0.061129
vn -0.185064 -0.667684 -0.721061
vn 0.098788 -0.228401 0.968535
vn 0.179876 0.505539 0.843806
vn -0.722404 0.676626 0.142430
vn -0.019196 0.633931 -0.773125
vn 0.883480 0.462844 -0.071963
vn 0.174841 0.884854 0.431745
vn -0.243202 0.964110 0.106204
vn 0.083438 0.944243 -0.318400
vn 0.501663 0.865017 0.006287
vn 0.087283 0.570055 -0.816919
vn 0.301126 0.826624 -0.475356
vn 0.360240 0.790735 0.494888
vn 0.187078 0.348186 0.918546
vn -0.292459 -0.953215 -0.076022
vn -0.472457 -0.877590 -0.081179
vn -0.111545 0.369030 -0.922666
vn -0.032044 0.603168 -0.796960
vn 0.166540 0.266121 0.949431
vn 0.181005 0.427747 0.885556
vn -0.127537 -0.989227 -0.071780
vn -0.106510 -0.992676 -0.056459
vn -0.070589 -0.689169 -0.721122
vn -0.657155 -0.752373 0.045534
vn -0.127323 -0.095767 -0.987213
vn 0.983367 -0.117405 -0.138524
vn 0.135075 -0.208655 0.968596
vn 0.110660 -0.767266 0.631672
vn 0.027345 -0.997711 -0.061403
vn -0.974975 -0.186987 0.119968
vn 0.697226 -0.704154 -0.134190
vn -0.825282 0.546342 0.142674
vn 0.793756 0.603961 -0.071841
vn 0.093051 0.528459 0.843806
vn -0.124546 0.621815 -0.773156
vn -0.400800 0.909848 0.107150
vn -0.075472 0.944975 -0.318278
vn 0.350078 0.936674 0.007233
vn 0.024445 0.901578 0.431837
vn 0.362712 0.508042 0.781213
vn 0.423170 0.329936 0.843806
vn 0.198675 0.442824 -0.874294
vn 0.160100 0.610279 -0.775811
vn -0.628224 -0.777398 0.031007
vn -0.434645 -0.900571 -0.001862
vn 0.059420 0.127995 0.989990
vn 0.077975 0.562456 0.823115
vn -0.193670 0.255226 -0.947264
vn -0.126469 0.665212 -0.735832
vn 0.048677 -0.996246 -0.071383
vn 0.237312 -0.966796 -0.094516
vn 0.402875 -0.637287 -0.656911
vn -0.653615 -0.546922 -0.523087
vn -0.644368 0.597125 -0.477706
vn 0.727165 0.426649 0.537736
vn -0.489273 0.527696 0.694327
vn -0.518204 -0.622242 0.586688
vn 0.534349 -0.722709 0.438337
vn 0.575671 0.513718 -0.636128
vn 0.605670 -0.516037 -0.605670
vn -0.605670 -0.516037 -0.605670
vn 0.612110 0.500595 -0.612110
vn 0.612110 0.500595 0.612110
vn -0.612110 0.500595 0.612110
vn 0.605670 -0.516037 0.605670
vn -0.605670 -0.516037 0.605670
vn -0.612110 0.500595 -0.612110
vn 0.538255 0.647938 0.538896
vn 0.538255 0.647938 -0.538865
vn 0.685202 -0.012757 -0.728202
vn 0.696524 -0.055391 0.715354
vn -0.728141 0.022767 0.685018
vn -0.539628 0.640431 0.546434
vn -0.539628 0.640431 -0.546434
vn -0.715537 0.056490 -0.696249
vn 0.571520 0.507706 -0.644642
vn -0.596149 0.639576 -0.485275
vn 0.723167 0.433943 0.537248
vn 0.603656 -0.109500 -0.789666
vn -0.780786 0.074770 -0.620289
vn 0.788263 -0.162267 0.593524
vn -0.592120 0.021149 0.805567
vn -0.453993 0.566027 0.688070
vn 0.656392 0.021332 0.754112
vn 0.794244 -0.025788 -0.607013
vn 0.786157 -0.011689 0.617878
vn -0.651143 0.029298 0.758354
vn -0.722770 0.020295 0.690756
vn -0.625172 0.013001 -0.780358
vn -0.808832 0.048128 -0.586016
vn 0.537675 -0.033509 -0.842463
g StreetLamp_StreetLamp_initialShadingGroup
usemtl initialShadingGroup
s off
f 18/1/1 19/2/1 21/3/1
f 22/4/2 23/5/2 18/6/2
f 23/5/3 24/7/3 19/8/3
f 24/7/4 25/9/4 21/3/4
f 25/10/5 22/4/5 18/6/5
f 26/11/6 27/12/6 28/13/6
f 29/14/7 28/15/7 31/16/7
f 31/17/8 30/18/8 33/19/8
f 33/20/9 32/21/9 26/22/9
f 34/23/10 35/24/10 36/25/10
f 37/26/11 36/27/11 38/28/11
f 39/29/12 38/30/12 41/31/12
f 41/32/13 40/33/13 35/34/13
f 35/35/14 40/36/14 38/37/14
f 71/1/15 72/2/15 73/38/15
f 75/4/16 76/5/16 71/6/16
f 76/5/17 77/7/17 73/38/17
f 77/7/18 78/9/18 73/38/18
f 78/10/19 75/4/19 74/39/19
f 79/11/20 80/12/20 82/40/20
f 82/14/21 81/15/21 83/41/21
f 84/17/22 83/18/22 86/19/22
f 86/20/23 85/21/23 80/42/23
f 80/43/24 87/44/24 81/45/24
f 81/46/25 88/47/25 89/48/25
f 83/49/26 89/50/26 85/51/26
f 85/32/27 90/52/27 87/34/27
f 87/35/28 90/36/28 88/53/28
f 103/54/29 104/55/29 106/56/29
f 108/57/30 107/58/30 109/59/30
f 118/60/31 117/61/31 111/62/31
f 19/2/32 20/38/32 21/3/32
f 23/5/33 19/8/33 18/6/33
f 24/7/34 20/38/34 19/8/34
f 20/38/35 24/7/35 21/3/35
f 21/39/36 25/10/36 18/6/36
f 29/40/37 26/11/37 28/13/37
f 28/15/38 30/41/38 31/16/38
f 30/18/39 32/63/39 33/19/39
f 32/21/40 27/42/40 26/22/40
f 37/64/41 34/23/41 36/25/41
f 39/65/42 37/26/42 38/28/42
f 38/30/43 40/66/43 41/31/43
f 34/67/44 41/32/44 35/34/44
f 36/53/45 35/35/45 38/37/45
f 74/3/46 71/1/46 73/38/46
f 76/5/47 72/8/47 71/6/47
f 72/8/48 76/5/48 73/38/48
f 78/9/49 74/3/49 73/38/49
f 75/4/50 71/6/50 74/39/50
f 80/12/51 81/13/51 82/40/51
f 84/16/52 82/14/52 83/41/52
f 83/18/53 85/63/53 86/19/53
f 79/22/54 86/20/54 80/42/54
f 87/44/55 88/68/55 81/45/55
f 83/69/56 81/46/56 89/48/56
f 89/50/57 90/70/57 85/51/57
f 80/67/58 85/32/58 87/34/58
f 90/36/59 89/37/59 88/53/59
f 104/55/60 105/71/60 106/56/60
f 110/72/61 108/57/61 109/59/61
f 117/61/31 112/73/31 111/62/31
s 1
f 1/74/62 2/75/63 3/76/64
f 5/77/65 6/78/66 8/79/67
f 1/74/62 9/80/68 2/75/63
f 2/75/63 7/81/69 6/78/66
f 8/82/67 1/74/62 4/83/70
f 4/83/70 3/76/64 11/84/71
f 5/85/65 4/83/70 11/84/71
f 12/86/72 13/87/73 6/78/66
f 3/76/64 6/78/66 10/88/74
f 11/84/71 10/88/74 15/89/75
f 12/90/72 11/84/71 16/91/76
f 16/92/76 17/93/77 12/86/72
f 10/88/74 13/87/73 14/94/78
f 8/95/67 7/81/69 9/80/68
f 9/80/68 7/81/69 2/75/63
f 9/80/68 1/74/62 8/96/67
f 42/97/79 43/98/80 44/99/81
f 45/100/82 44/99/81 47/101/83
f 47/102/83 46/103/84 43/98/80
f 48/104/85 49/105/86 51/106/87
f 51/106/87 50/107/88 52/108/89
f 53/109/90 52/110/89 49/105/86
f 49/105/86 42/97/79 50/107/88
f 52/108/89 50/107/88 45/100/82
f 49/105/86 52/110/89 47/102/83
f 54/74/91 55/75/92 57/83/93
f 58/77/94 59/78/95 60/81/96
f 54/74/91 62/80/97 55/75/92
f 55/75/92 60/81/96 56/76/98
f 61/82/99 54/74/91 58/85/94
f 57/83/93 56/76/98 63/88/100
f 58/85/94 57/83/93 65/90/101
f 65/86/101 66/87/102 58/77/94
f 56/76/98 59/78/95 66/87/102
f 64/84/103 63/88/100 67/94/104
f 65/90/101 64/84/103 68/89/105
f 69/92/106 70/93/107 66/87/102
f 63/88/100 66/87/102 70/93/107
f 61/95/99 60/81/96 62/80/97
f 62/80/97 60/81/96 55/75/92
f 61/96/99 62/80/97 54/74/91
f 91/97/108 92/98/109 93/99/110
f 94/100/111 93/99/110 95/111/112
f 96/102/113 95/103/112 91/97/108
f 97/104/114 98/105/115 100/106/116
f 100/106/116 99/107/117 101/108/118
f 102/109/119 101/110/118 97/104/114
f 98/105/115 91/97/108 99/107/117
f 101/108/118 99/107/117 94/100/111
f 98/105/115 101/110/118 96/102/113
f 106/112/120 105/113/121 107/114/122
f 110/115/123 109/116/124 104/117/125
f 104/118/125 109/119/124 107/114/122
f 110/115/123 103/120/126 108/121/127
f 111/122/128 112/123/129 114/124/130
f 115/125/131 116/126/132 118/127/133
f 112/123/129 117/128/134 113/129/135
f 118/130/133 111/122/128 115/131/131
f 119/132/136 120/133/137 121/134/138
f 122/135/139 123/136/140 124/137/141
f 125/138/142 124/137/141 126/139/143
f 120/133/137 125/138/142 121/134/138
f 115/131/131 114/124/130 119/132/136
f 119/140/136 124/137/141 115/125/131
f 113/129/135 116/126/132 125/138/142
f 114/124/130 113/129/135 125/138/142
f 127/141/144 128/142/145 130/143/146
f 127/144/144 131/145/147 132/146/148
f 133/147/149 131/145/147 130/148/146
f 134/149/150 133/150/149 129/151/151
f 128/152/145 132/146/148 134/149/150
f 135/153/152 136/154/153 138/155/154
f 138/156/154 139/157/155 140/158/156
f 141/159/157 140/158/156 142/160/158
f 136/154/153 141/159/157 137/161/159
f 132/146/148 131/145/147 137/161/159
f 131/145/147 133/147/149 138/155/154
f 138/156/154 133/150/149 134/149/150
f 134/149/150 132/146/148 139/157/155
f 121/134/138 126/139/143 136/154/153
f 122/162/139 121/134/138 136/154/153
f 135/163/152 140/158/156 123/136/140
f 126/139/143 123/136/140 140/158/156
f 4/83/70 1/74/62 3/76/64
f 6/78/66 7/81/69 8/79/67
f 3/76/64 2/75/63 6/78/66
f 5/85/65 8/82/67 4/83/70
f 3/76/64 10/88/74 11/84/71
f 12/90/72 5/85/65 11/84/71
f 5/77/65 12/86/72 6/78/66
f 6/78/66 13/87/73 10/88/74
f 10/88/74 14/94/78 15/89/75
f 11/84/71 15/89/75 16/91/76
f 17/93/77 13/87/73 12/86/72
f 13/87/73 17/93/77 14/94/78
f 45/100/82 42/97/79 44/99/81
f 44/99/81 46/111/84 47/101/83
f 42/97/79 47/102/83 43/98/80
f 49/105/86 50/107/88 51/106/87
f 53/164/90 51/106/87 52/108/89
f 48/104/85 53/109/90 49/105/86
f 42/97/79 45/100/82 50/107/88
f 47/101/83 52/108/89 45/100/82
f 42/97/79 49/105/86 47/102/83
f 55/75/92 56/76/98 57/83/93
f 61/79/99 58/77/94 60/81/96
f 60/81/96 59/78/95 56/76/98
f 54/74/91 57/83/93 58/85/94
f 64/84/103 57/83/93 63/88/100
f 57/83/93 64/84/103 65/90/101
f 66/87/102 59/78/95 58/77/94
f 63/88/100 56/76/98 66/87/102
f 68/89/105 64/84/103 67/94/104
f 69/91/106 65/90/101 68/89/105
f 65/86/101 69/92/106 66/87/102
f 67/94/104 63/88/100 70/93/107
f 94/100/111 91/97/108 93/99/110
f 96/101/113 94/100/111 95/111/112
f 95/103/112 92/98/109 91/97/108
f 98/105/115 99/107/117 100/106/116
f 102/164/119 100/106/116 101/108/118
f 101/110/118 98/105/115 97/104/114
f 91/97/108 94/100/111 99/107/117
f 96/101/113 101/108/118 94/100/111
f 91/97/108 98/105/115 96/102/113
f 108/121/127 106/112/120 107/114/122
f 103/120/126 110/115/123 104/117/125
f 105/113/121 104/118/125 107/114/122
f 103/120/126 106/112/120 108/121/127
f 112/123/129 113/129/135 114/124/130
f 116/126/132 117/128/134 118/127/133
f 117/128/134 116/126/132 113/129/135
f 111/122/128 114/124/130 115/131/131
f 122/162/139 119/132/136 121/134/138
f 119/140/136 122/135/139 124/137/141
f 124/137/141 123/136/140 126/139/143
f 125/138/142 126/139/143 121/134/138
f 114/124/130 120/133/137 119/132/136
f 124/137/141 116/126/132 115/125/131
f 116/126/132 124/137/141 125/138/142
f 120/133/137 114/124/130 125/138/142
f 128/142/145 129/165/151 130/143/146
f 128/152/145 127/144/144 132/146/148
f 131/145/147 127/144/144 130/148/146
f 133/150/149 130/166/146 129/151/151
f 129/151/151 128/152/145 134/149/150
f 136/154/153 137/161/159 138/155/154
f 135/163/152 138/156/154 140/158/156
f 140/158/156 139/157/155 142/160/158
f 141/159/157 142/160/158 137/161/159
f 142/160/158 132/146/148 137/161/159
f 137/161/159 131/145/147 138/155/154
f 139/157/155 138/156/154 134/149/150
f 132/146/148 142/160/158 139/157/155
f 126/139/143 141/159/157 136/154/153
f 135/153/152 122/162/139 136/154/153
f 122/135/139 135/163/152 123/136/140
f 141/159/157 126/139/143 140/158/156
