# Blender v2.67 (sub 0) OBJ File: ''
# www.blender.org
mtllib pillarBroken.mtl
o brokenPillar.001_brokenPillar.001_initialShadingGroup.000
v 25.468254 39.658844 -5.545732
v 31.102180 33.331623 -8.298481
v 24.956894 40.233101 -5.795550
v 33.245514 34.625584 -9.054707
v 25.648956 39.824032 -14.442064
v 21.676523 44.107674 -12.057144
v 23.045485 46.178448 -14.464432
v 27.038795 41.693726 -21.921036
v 26.527435 42.267990 -21.671127
v 32.672722 35.366505 -19.168293
v 33.245514 34.625591 -17.962696
v -6.458740 7.155128 -20.069332
v -1.691616 1.774996 -17.624939
v -7.307908 6.054895 -7.697630
v -8.007347 6.959280 -4.433256
v -8.862434 14.007706 -5.492762
v -7.447472 10.858028 -0.568752
v -8.119183 8.217686 1.120730
v -6.599039 4.192693 -0.803953
v -55.736328 9.514827 22.759861
v -55.896484 8.732362 22.634037
v -53.666649 12.246136 25.292301
v -54.816200 4.363953 24.667480
v -55.192505 4.791419 24.093567
v -51.918739 5.177871 28.582428
v -52.311424 4.659629 28.101929
v -51.208244 10.049345 28.968601
v -51.074669 9.301555 29.245548
v -53.191383 12.302239 25.943943
v -11.078554 4.755809 -9.037077
v -11.890791 7.790159 -11.460020
v -10.599240 2.222373 -8.548187
v -6.662806 2.687048 -3.150696
v -8.807351 14.135063 -7.586605
v -11.580185 10.766104 -10.766842
v -10.102261 9.296103 -12.791500
v -9.362087 10.415743 -14.464474
v -2.034620 0.799547 -11.093384
v -2.768219 0.956583 -8.110046
v 49.857018 12.667192 -20.496914
v 44.381599 12.667192 -24.475033
v 49.857018 17.362774 -20.496914
v 44.381599 17.362774 -24.475033
v 37.613625 12.667192 -24.475033
v 37.613625 17.362774 -24.475033
v 32.138206 12.667192 -20.496914
v 32.138206 17.362774 -20.496914
v 30.046791 12.667189 -14.060207
v 30.046791 17.362770 -14.060205
v 32.138206 12.667187 -7.623440
v 32.138206 17.362770 -7.623438
v 37.613625 12.667187 -3.645321
v 37.613625 17.362766 -3.645319
v 44.381599 12.667187 -3.645321
v 44.381599 17.362766 -3.645319
v 49.857018 12.667187 -7.623440
v 49.857018 17.362770 -7.623438
v 51.948433 12.667189 -14.060207
v 51.948433 17.362770 -14.060205
v 51.248955 17.697079 -14.060205
v 49.291115 17.697083 -20.085747
v 49.291115 17.697079 -8.034601
v 44.165459 17.697083 -23.809776
v 37.829781 17.697083 -23.809776
v 32.704109 17.697083 -20.085747
v 30.746284 17.697079 -14.060205
v 32.704109 17.697079 -8.034601
v 37.829781 17.697075 -4.310602
v 44.165459 17.697075 -4.310602
v 31.305840 12.094001 -2.123104
v 28.298027 0.839210 0.884705
v 50.356880 12.094001 -2.123104
v 53.364708 0.839210 0.884705
v 28.298027 0.839220 -29.245544
v 31.305840 12.094008 -26.237698
v 53.364708 0.839220 -29.245544
v 50.356880 12.094008 -26.237698
v 52.888649 12.094003 -4.654873
v 55.896484 0.839210 -1.647064
v 52.888649 12.094008 -23.705929
v 55.896484 0.839218 -26.713776
v 28.774071 12.094008 -23.705929
v 25.766243 0.839218 -26.713776
v 28.774071 12.094003 -4.654873
v 25.766243 0.839210 -1.647064
v 29.649757 12.672338 -5.017574
v 31.668571 12.672338 -2.998806
v 29.649757 12.672345 -23.343227
v 49.994148 12.672338 -2.998806
v 52.012978 12.672338 -5.017574
v 52.012978 12.672345 -23.343227
v 49.994148 12.672345 -25.362026
v 31.668571 12.672345 -25.362026
v 50.564537 17.697079 -14.464441
v 44.338432 17.697083 -23.033928
v 48.653694 46.593258 -15.377640
v 44.111984 46.617207 -21.931534
v 43.569481 17.697083 -23.283806
v 43.312565 46.617207 -22.191330
v 34.553268 46.617207 -19.345230
v 33.495430 17.697083 -20.010521
v 33.020180 17.697083 -19.356438
v 34.059189 46.617207 -18.665237
v 34.252747 46.689228 -9.875290
v 33.020180 17.697079 -8.763941
v 33.495430 17.697079 -8.109858
v 35.826454 46.545170 -8.355027
v 42.809479 46.182850 -6.570694
v 43.569481 17.697075 -4.836572
v 44.338432 17.697075 -5.086420
v 44.615070 47.051548 -6.868393
v 48.892105 46.641155 -12.742691
v 50.564537 17.697079 -13.655939
v 39.757259 45.301567 -14.060165
vt 0.431698 0.504932
vt 0.496995 0.440276
vt 0.430237 0.513074
vt 0.511770 0.442756
vt 0.511770 0.545768
vt 0.462120 0.587973
vt 0.486245 0.607862
vt 0.581730 0.587089
vt 0.575803 0.592957
vt 0.597823 0.497378
vt 0.591382 0.483295
vt 0.894051 0.224494
vt 0.899713 0.225244
vt 0.867606 0.563173
vt 0.611805 0.233390
vt 0.622438 0.233416
vt 0.643855 0.566410
vt 0.750444 0.239525
vt 0.756065 0.239052
vt 0.758778 0.567733
vt 0.517353 0.544834
vt 0.595811 0.486424
vt 0.591292 0.564461
vt 0.568703 0.596270
vt 0.509132 0.606563
vt 0.439118 0.535586
vt 0.437490 0.519067
vt 0.498224 0.601067
vt 0.498225 0.437068
vt 0.482713 0.443691
vt 0.596494 0.468389
vt 0.585280 0.455964
vt 0.596494 0.569746
vt 0.605075 0.555444
vt 0.514742 0.604653
vt 0.744768 0.953659
vt 0.714425 0.954803
vt 0.703353 0.567479
vt 0.675791 0.564051
vt 0.721561 0.565141
vt 0.750742 0.953303
vt 0.781262 0.951201
vt 0.768030 0.563045
vt 0.787196 0.950799
vt 0.785478 0.572033
vt 0.818319 0.948417
vt 0.813827 0.589108
vt 0.833427 0.579048
vt 0.824262 0.947981
vt 0.855203 0.947950
vt 0.873542 0.569004
vt 0.885559 0.560874
vt 0.860994 0.948297
vt 0.891210 0.951761
vt 0.922424 0.566456
vt 0.805452 0.566301
vt 0.812656 0.235967
vt 0.830418 0.219260
vt 0.817658 0.557594
vt 0.920478 0.572924
vt 0.962889 0.235276
vt 0.689746 0.570253
vt 0.682592 0.229321
vt 0.690001 0.246226
vt 0.711168 0.572078
vt 0.708611 0.955234
vt 0.654603 0.567135
vt 0.428226 0.512462
vt 0.491385 0.438977
vt 0.433828 0.538169
vt 0.491385 0.606563
vt 0.590517 0.472644
vt 0.595811 0.561677
vt 0.586651 0.602280
vt 0.455450 0.496755
vt 0.475749 0.448707
vt 0.517353 0.438978
vt 0.583876 0.463361
vt 0.475276 0.590414
vt 0.428226 0.519596
vt 0.983719 0.867554
vt 0.983719 0.916228
vt 0.949950 0.867554
vt 0.949950 0.916228
vt 0.983719 0.964902
vt 0.949950 0.964901
vt 0.983719 0.478164
vt 0.983719 0.526838
vt 0.949950 0.478164
vt 0.949950 0.526838
vt 0.983719 0.575511
vt 0.949950 0.575511
vt 0.983719 0.624185
vt 0.949950 0.624185
vt 0.983719 0.672859
vt 0.949950 0.672859
vt 0.983719 0.721532
vt 0.949950 0.721532
vt 0.983719 0.770206
vt 0.949950 0.770206
vt 0.983719 0.818880
vt 0.949950 0.818880
vt 0.576422 0.331896
vt 0.565284 0.366191
vt 0.565276 0.297603
vt 0.536116 0.387393
vt 0.500031 0.387393
vt 0.470862 0.366191
vt 0.459725 0.331896
vt 0.470871 0.297603
vt 0.500044 0.276410
vt 0.536103 0.276410
vt 0.648342 0.845760
vt 0.683433 0.977175
vt 0.426076 0.845760
vt 0.390984 0.977175
vt 0.648807 0.845727
vt 0.683970 0.977195
vt 0.426088 0.845727
vt 0.390925 0.977195
vt 0.580848 0.331895
vt 0.568866 0.368792
vt 0.537490 0.391604
vt 0.498657 0.391604
vt 0.467281 0.368792
vt 0.455299 0.331895
vt 0.467291 0.295002
vt 0.498677 0.272201
vt 0.537470 0.272201
vt 0.568856 0.295001
vt 0.456184 0.687129
vt 0.469100 0.674223
vt 0.456184 0.804687
vt 0.586584 0.674252
vt 0.599494 0.687164
vt 0.599494 0.804652
vt 0.586584 0.817565
vt 0.469100 0.817594
vt 0.361114 0.977175
vt 0.390652 0.977175
vt 0.396206 0.845760
vt 0.425743 0.845760
vt 0.361446 0.977175
vt 0.396538 0.845760
vt 0.449480 0.684656
vt 0.466629 0.667521
vt 0.589058 0.667551
vt 0.606195 0.684692
vt 0.606195 0.807124
vt 0.589058 0.824265
vt 0.466629 0.824295
vt 0.449480 0.807160
vt 0.836854 0.012894
vt 0.910476 0.014465
vt 0.842175 0.223855
vt 0.902085 0.222592
vt 0.916163 0.014627
vt 0.908453 0.222517
vt 0.973740 0.223830
vt 0.991018 0.018616
vt 0.593689 0.020749
vt 0.599463 0.020312
vt 0.606589 0.219564
vt 0.612555 0.219383
vt 0.676892 0.220561
vt 0.673226 0.016348
vt 0.678928 0.016127
vt 0.694064 0.220422
vt 0.750307 0.220009
vt 0.752721 0.013723
vt 0.758269 0.013668
vt 0.764443 0.226605
vt 0.822132 0.224245
vt 0.831459 0.012887
vt 0.563503 0.602740
vt 0.514663 0.539283
vt 0.607096 0.513383
vt 0.439511 0.495175
vt 0.445596 0.476190
vt 0.514663 0.439409
vt 0.542418 0.445955
vt 0.605529 0.504441
vt 0.555499 0.606994
vt 0.461983 0.591604
vt 0.448099 0.572495
vn 0.746830 0.665015 -0.000040
vn 0.348397 -0.029551 0.936881
vn 0.740552 0.671436 0.027508
vn 0.702877 0.290262 0.649394
vn 0.746832 0.665012 0.000029
vn 0.899336 0.369292 0.234136
vn 0.561909 0.827178 0.005841
vn 0.564743 0.825267 0.000001
vn 0.611486 0.769892 0.182623
vn 0.650073 0.692380 0.313073
vn -0.249442 0.191025 -0.949362
vn 0.538673 -0.579178 -0.611870
vn -0.253843 0.186816 0.949033
vn 0.970678 0.083897 -0.225269
vn 0.976315 -0.205940 0.066321
vn 0.922231 0.380669 -0.067681
vn -0.890774 0.432203 -0.140263
vn -0.972808 -0.019440 -0.230720
vn -0.673452 0.725089 0.143742
vn -0.663778 -0.707694 0.241890
vn -0.884060 -0.459273 -0.086367
vn -0.173132 -0.364605 0.914914
vn -0.389477 -0.671194 0.630665
vn -0.182775 0.516861 0.836299
vn -0.094607 0.092410 0.991211
vn -0.404248 0.756706 0.513749
vn 0.243233 -0.365246 -0.898556
vn 0.115818 -0.187384 -0.975402
vn 0.195074 -0.657674 -0.727592
vn 0.790185 -0.606281 -0.089572
vn 0.882351 -0.259957 0.392224
vn 0.783044 0.079958 0.616779
vn 0.848872 0.409528 0.334178
vn 0.632466 0.764550 0.124027
vn 0.544481 0.697623 -0.465621
vn 0.146855 0.409925 -0.900204
vn -0.685049 -0.247322 0.685202
vn 0.104892 0.737114 0.667562
vn -0.986938 -0.009552 0.160772
vn -0.142277 0.836573 0.529008
vn 0.106113 0.988739 0.105228
vn -0.851375 0.423475 -0.309427
vn -0.563189 -0.235908 -0.791894
vn 0.187262 0.812464 -0.552080
vn 0.022675 -0.855037 -0.518021
vn 0.806330 0.194342 -0.558611
vn 0.462233 0.426435 -0.777459
vn 0.003967 -0.999207 -0.039094
vn 0.910367 0.054933 0.410108
vn 0.975860 -0.024812 -0.216865
vn 0.440352 -0.368938 0.818476
vn -0.117527 -0.819025 0.561541
vn 0.460494 0.424268 0.779656
vn 0.939146 0.072115 -0.335826
vn 0.809015 0.000000 -0.587756
vn 0.309000 0.000000 -0.951048
vn 0.704917 0.490677 -0.512131
vn 0.269234 0.490677 -0.828669
vn -0.309000 0.000000 -0.951048
vn -0.269234 0.490677 -0.828669
vn -0.809015 0.000000 -0.587756
vn -0.704917 0.490677 -0.512131
vn -1.000000 0.000000 0.000000
vn -0.871334 0.490677 0.000000
vn -0.809015 0.000000 0.587756
vn -0.704917 0.490677 0.512131
vn -0.309000 0.000000 0.951048
vn -0.269234 0.490677 0.828669
vn 0.309000 0.000000 0.951048
vn 0.269234 0.490677 0.828669
vn 0.809015 0.000000 0.587756
vn 0.704917 0.490677 0.512131
vn 1.000000 0.000000 0.000000
vn 0.871334 0.490677 0.000000
vn 0.262215 0.964995 0.000000
vn 0.212134 0.964995 -0.154118
vn 0.212134 0.964995 0.154118
vn 0.081027 0.964995 -0.249367
vn -0.081027 0.964995 -0.249367
vn -0.212134 0.964995 -0.154118
vn -0.262215 0.964995 0.000000
vn -0.212134 0.964995 0.154118
vn -0.081027 0.964995 0.249367
vn 0.081027 0.964995 0.249367
vn -0.289590 0.588580 0.754753
vn -0.386425 0.333110 0.860042
vn 0.289590 0.588580 0.754753
vn 0.386425 0.333110 0.860042
vn -0.386425 0.333110 -0.860042
vn -0.289590 0.588580 -0.754753
vn 0.386425 0.333110 -0.860042
vn 0.289590 0.588580 -0.754753
vn 0.754753 0.588580 0.289590
vn 0.860042 0.333110 0.386425
vn 0.754753 0.588580 -0.289590
vn 0.860042 0.333110 -0.386425
vn -0.754753 0.588580 -0.289590
vn -0.860042 0.333110 -0.386425
vn -0.754753 0.588580 0.289590
vn -0.860042 0.333110 0.386425
vn -0.305460 0.943754 0.126499
vn -0.126499 0.943754 0.305429
vn -0.305460 0.943754 -0.126499
vn 0.126499 0.943754 0.305429
vn 0.305460 0.943754 0.126530
vn 0.305460 0.943754 -0.126530
vn 0.126499 0.943754 -0.305460
vn -0.126499 0.943754 -0.305460
vn 0.952635 0.053529 -0.299264
vn 0.586352 0.038087 -0.809137
vn 0.653737 0.712638 -0.254402
vn 0.431074 0.699301 -0.570208
vn 0.001740 0.037751 -0.999268
vn -0.008087 0.704947 -0.709189
vn -0.408460 0.711814 -0.571337
vn -0.589801 0.040101 -0.806513
vn -0.950011 0.044282 -0.308969
vn -0.672018 0.712394 -0.202063
vn -0.634449 0.718406 0.285134
vn -0.946654 0.059206 0.316721
vn -0.591998 0.061708 0.803552
vn -0.298532 0.719810 0.626637
vn -0.184454 0.600818 0.777795
vn 0.005127 0.060884 0.998108
vn 0.577380 0.049928 0.814905
vn 0.260842 0.743828 0.615314
vn 0.697104 0.693075 0.183416
vn 0.953459 0.049959 0.297311
vn 0.029389 0.999542 0.002533
g brokenPillar.001_brokenPillar.001_initialShadingGroup.000_brokenPillar.001_brokenPillar.001_initialShadingGroup.000_initialShadingGroup.015
usemtl initialShadingGroup.015
s off
f 1/1/1 2/2/1 3/3/1
f 4/4/2 3/3/2 2/2/2
f 3/3/3 5/5/3 6/6/3
f 6/6/4 5/5/4 7/7/4
f 8/8/5 9/9/5 10/10/5
f 5/5/6 9/9/6 7/7/6
f 3/3/7 4/4/7 5/5/7
f 4/4/8 11/11/8 5/5/8
f 5/5/9 11/11/9 10/10/9
f 10/10/10 9/9/10 5/5/10
f 9/12/11 8/13/11 12/14/11
f 10/15/12 11/16/12 13/17/12
f 1/18/13 3/19/13 14/20/13
f 15/21/14 16/22/14 17/23/14
f 18/24/15 15/21/15 17/23/15
f 19/25/16 15/21/16 18/24/16
s 1
f 20/26/17 21/27/18 22/28/19
f 23/29/20 21/27/18 24/30/21
f 21/27/18 23/29/20 22/28/19
f 25/31/22 23/29/20 26/32/23
f 23/29/20 25/31/22 22/28/19
f 27/33/24 22/28/19 25/31/22
f 28/34/25 27/33/24 25/31/22
f 22/28/19 27/33/24 29/35/26
f 24/36/21 21/37/18 30/38/27
f 30/38/27 21/37/18 31/39/28
f 32/40/29 23/41/20 30/38/27
f 30/38/27 23/41/20 24/36/21
f 23/41/20 32/40/29 26/42/23
f 26/42/23 32/40/29 33/43/30
f 25/44/22 26/42/23 19/45/31
f 19/45/31 26/42/23 33/43/30
f 28/46/25 25/44/22 18/47/32
f 18/47/32 25/44/22 19/45/31
f 17/48/33 27/49/24 18/47/32
f 18/47/32 27/49/24 28/46/25
f 27/49/24 17/48/33 29/50/26
f 29/50/26 17/48/33 16/51/34
f 34/52/35 22/53/19 16/51/34
f 16/51/34 22/53/19 29/50/26
f 20/54/17 22/53/19 35/55/36
f 35/55/36 22/53/19 34/52/35
f 14/20/37 3/19/38 36/56/39
f 36/56/39 3/19/38 6/57/40
f 7/58/41 37/59/42 6/57/40
f 6/57/40 37/59/42 36/56/39
f 12/14/43 37/59/42 9/12/44
f 9/12/44 37/59/42 7/58/41
f 13/60/45 12/14/43 10/61/46
f 10/61/46 12/14/43 8/13/47
f 38/62/48 13/17/45 4/63/49
f 4/63/49 13/17/45 11/16/50
f 4/63/49 2/64/51 38/62/48
f 38/62/48 2/64/51 39/65/52
f 39/65/52 2/64/51 14/20/37
f 2/64/51 1/18/53 14/20/37
f 20/66/17 35/67/36 21/37/18
f 21/37/18 35/67/36 31/39/28
f 37/68/42 12/69/43 36/70/39
f 36/70/39 12/69/43 14/71/37
f 12/69/43 13/72/45 14/71/37
f 38/73/48 14/71/37 13/72/45
f 39/74/52 14/71/37 38/73/48
f 30/75/27 31/76/28 15/21/54
f 31/76/28 35/77/36 15/21/54
f 16/22/34 15/21/54 34/78/35
f 35/77/36 34/78/35 15/21/54
f 33/79/30 30/75/27 15/21/54
f 19/25/31 33/79/30 15/21/54
f 30/75/27 33/79/30 32/80/29
f 40/81/55 41/82/56 42/83/57
f 42/83/57 41/82/56 43/84/58
f 41/82/56 44/85/59 43/84/58
f 43/84/58 44/85/59 45/86/60
f 44/87/59 46/88/61 45/89/60
f 45/89/60 46/88/61 47/90/62
f 46/88/61 48/91/63 47/90/62
f 47/90/62 48/91/63 49/92/64
f 48/91/63 50/93/65 49/92/64
f 49/92/64 50/93/65 51/94/66
f 50/93/65 52/95/67 51/94/66
f 51/94/66 52/95/67 53/96/68
f 52/95/67 54/97/69 53/96/68
f 53/96/68 54/97/69 55/98/70
f 54/97/69 56/99/71 55/98/70
f 55/98/70 56/99/71 57/100/72
f 56/99/71 58/101/73 57/100/72
f 57/100/72 58/101/73 59/102/74
f 58/101/73 40/81/55 59/102/74
f 59/102/74 40/81/55 42/83/57
f 60/103/75 61/104/76 62/105/77
f 61/104/76 63/106/78 62/105/77
f 63/106/78 64/107/79 62/105/77
f 64/107/79 65/108/80 62/105/77
f 65/108/80 66/109/81 62/105/77
f 66/109/81 67/110/82 62/105/77
f 67/110/82 68/111/83 62/105/77
f 68/111/83 69/112/84 62/105/77
f 70/113/85 71/114/86 72/115/87
f 72/115/87 71/114/86 73/116/88
f 74/114/89 75/113/90 76/116/91
f 76/116/91 75/113/90 77/115/92
f 78/117/93 79/118/94 80/119/95
f 80/119/95 79/118/94 81/120/96
f 82/119/97 83/120/98 84/117/99
f 84/117/99 83/120/98 85/118/100
f 59/121/74 42/122/57 60/103/75
f 60/103/75 42/122/57 61/104/76
f 42/122/57 43/123/58 61/104/76
f 61/104/76 43/123/58 63/106/78
f 43/123/58 45/124/60 63/106/78
f 63/106/78 45/124/60 64/107/79
f 45/124/60 47/125/62 64/107/79
f 64/107/79 47/125/62 65/108/80
f 47/125/62 49/126/64 65/108/80
f 65/108/80 49/126/64 66/109/81
f 49/126/64 51/127/66 66/109/81
f 66/109/81 51/127/66 67/110/82
f 51/127/66 53/128/68 67/110/82
f 67/110/82 53/128/68 68/111/83
f 53/128/68 55/129/70 68/111/83
f 68/111/83 55/129/70 69/112/84
f 55/129/70 57/130/72 69/112/84
f 69/112/84 57/130/72 62/105/77
f 57/130/72 59/121/74 62/105/77
f 62/105/77 59/121/74 60/103/75
f 86/131/101 87/132/102 88/133/103
f 89/134/104 90/135/105 87/132/102
f 91/136/106 92/137/107 90/135/105
f 93/138/108 88/133/103 92/137/107
f 87/132/102 90/135/105 88/133/103
f 90/135/105 92/137/107 88/133/103
f 85/139/100 71/140/86 84/141/99
f 84/141/99 71/140/86 70/142/85
f 73/116/88 79/143/94 72/115/87
f 72/115/87 79/143/94 78/144/93
f 82/141/97 75/142/90 83/139/98
f 83/139/98 75/142/90 74/140/89
f 77/115/92 80/144/95 76/116/91
f 76/116/91 80/144/95 81/143/96
f 84/145/99 70/146/85 86/131/101
f 86/131/101 70/146/85 87/132/102
f 70/146/85 72/147/87 87/132/102
f 87/132/102 72/147/87 89/134/104
f 72/147/87 78/148/93 89/134/104
f 89/134/104 78/148/93 90/135/105
f 78/148/93 80/149/95 90/135/105
f 90/135/105 80/149/95 91/136/106
f 80/149/95 77/150/92 91/136/106
f 91/136/106 77/150/92 92/137/107
f 77/150/92 75/151/90 92/137/107
f 92/137/107 75/151/90 93/138/108
f 75/151/90 82/152/97 93/138/108
f 93/138/108 82/152/97 88/133/103
f 82/152/97 84/145/99 88/133/103
f 88/133/103 84/145/99 86/131/101
f 94/153/109 95/154/110 96/155/111
f 96/155/111 95/154/110 97/156/112
f 95/154/110 98/157/113 97/156/112
f 97/156/112 98/157/113 99/158/114
f 99/158/114 98/157/113 100/159/115
f 100/159/115 98/157/113 101/160/116
f 101/161/116 102/162/117 100/163/115
f 100/163/115 102/162/117 103/164/118
f 103/164/118 102/162/117 104/165/119
f 104/165/119 102/162/117 105/166/120
f 106/167/121 107/168/122 105/166/120
f 105/166/120 107/168/122 104/165/119
f 107/168/122 106/167/121 108/169/123
f 108/169/123 106/167/121 109/170/124
f 109/170/124 110/171/125 108/169/123
f 108/169/123 110/171/125 111/172/126
f 111/172/126 110/171/125 112/173/127
f 112/173/127 110/171/125 113/174/128
f 94/153/109 96/155/111 113/174/128
f 113/174/128 96/155/111 112/173/127
f 100/175/115 114/176/129 99/177/114
f 108/178/123 111/179/126 114/176/129
f 114/176/129 111/179/126 112/180/127
f 114/176/129 112/180/127 96/181/111
f 114/176/129 96/181/111 97/182/112
f 114/176/129 97/182/112 99/177/114
f 103/183/118 114/176/129 100/175/115
f 104/184/119 114/176/129 103/183/118
f 107/185/122 114/176/129 104/184/119
f 108/178/123 114/176/129 107/185/122
